<svg xmlns="http://www.w3.org/2000/svg" viewBox="0 0 24 16">
  <rect width="24" height="16" rx="2" fill="#ffffff"/>
  <path d="M12 4.2a3.8 3.8 0 0 1 3.8 3.8H12a1.9 1.9 0 0 0-1.9 1.9A3.8 3.8 0 1 1 12 4.2Z" fill="#dc2626"/>
  <path d="M12 11.8A3.8 3.8 0 0 1 8.2 8H12a1.9 1.9 0 0 0 1.9-1.9A3.8 3.8 0 1 1 12 11.8Z" fill="#2563eb"/>
  <g stroke="#111827" stroke-width="0.8">
    <path d="M4 4h3M4 5.2h3M4 6.4h3"/>
    <path d="M17 9.6h3M17 10.8h3M17 12h3"/>
    <path d="M17 4h3M17 5.2h3"/>
    <path d="M4 10.8h3M4 12h3"/>
  </g>
</svg>
